<?xml version="1.0" encoding="UTF-8" standalone="no"?>
<svg
   xmlns:dc="http://purl.org/dc/elements/1.1/"
   xmlns:cc="http://creativecommons.org/ns#"
   xmlns:rdf="http://www.w3.org/1999/02/22-rdf-syntax-ns#"
   xmlns:svg="http://www.w3.org/2000/svg"
   xmlns="http://www.w3.org/2000/svg"
   xmlns:sodipodi="http://sodipodi.sourceforge.net/DTD/sodipodi-0.dtd"
   xmlns:inkscape="http://www.inkscape.org/namespaces/inkscape"
   viewBox="0 0 1120 630"
   id="svg4227"
   version="1.1"
   inkscape:version="0.91 r13725"
   sodipodi:docname="logo.svg"
   inkscape:export-filename="C:\Users\tim\Datenknoten\dev\JavaScript in Jena\CI\variante 3\variante3.png"
   inkscape:export-xdpi="182"
   inkscape:export-ydpi="182"
   width="1120"
   height="630">
  <metadata
     id="metadata4237">
    <rdf:RDF>
      <cc:Work
         rdf:about="">
        <dc:format>image/svg+xml</dc:format>
        <dc:type
           rdf:resource="http://purl.org/dc/dcmitype/StillImage" />
        <dc:title></dc:title>
      </cc:Work>
    </rdf:RDF>
  </metadata>
  <defs
     id="defs4235" />
  <sodipodi:namedview
     pagecolor="#ffffff"
     bordercolor="#666666"
     borderopacity="1"
     objecttolerance="10"
     gridtolerance="10"
     guidetolerance="10"
     inkscape:pageopacity="0"
     inkscape:pageshadow="2"
     inkscape:window-width="1920"
     inkscape:window-height="1017"
     id="namedview4233"
     showgrid="false"
     inkscape:zoom="0.4601806"
     inkscape:cx="833.37729"
     inkscape:cy="521.04769"
     inkscape:window-x="-8"
     inkscape:window-y="-8"
     inkscape:window-maximized="1"
     inkscape:current-layer="svg4227"
     units="px" />
  <rect
     width="1120.025"
     height="630"
     id="rect4229"
     x="-0.025003266"
     y="2.2737368e-013"
     style="fill:#f7df1e" />
  <path
     d="m 808.44832,525.40013 c 7.92747,12.94383 18.2413,22.45804 36.48259,22.45804 15.32393,0 25.11301,-7.65885 25.11301,-18.2413 0,-12.68145 -10.0577,-17.17305 -26.92465,-24.55078 l -9.24558,-3.96686 c -26.68727,-11.36957 -44.4163,-25.61277 -44.4163,-55.7234 0,-27.73676 21.13366,-48.85168 54.16164,-48.85168 23.51378,0 40.41821,8.18359 52.5999,29.61086 l -28.79876,18.49118 c -6.34072,-11.36958 -13.1812,-15.84869 -23.80114,-15.84869 -10.83233,0 -17.6978,6.87172 -17.6978,15.84869 0,11.0947 6.87172,15.58631 22.73915,22.45803 l 9.24559,3.96061 c 31.4225,13.47482 49.16403,27.21201 49.16403,58.09727 0,33.29661 -26.15627,51.5379 -61.28325,51.5379 -34.34611,0 -56.53552,-16.36719 -67.39283,-37.81945 z m -130.64389,3.20473 c 5.80972,10.30758 11.0947,19.02217 23.80114,19.02217 12.15045,0 19.81554,-4.75398 19.81554,-23.23891 l 0,-125.75248 36.98235,0 0,126.25224 c 0,38.29422 -22.45179,55.7234 -55.22364,55.7234 -29.61087,0 -46.75894,-15.32393 -55.47977,-33.78075 z"
     id="path4231"
     inkscape:connector-curvature="0" />
  <g
     transform="matrix(0.30526317,0,0,0.30526317,915.22818,395.06576)"
     id="g5026">
    <g
       id="g4241"
       transform="matrix(0.23774874,0,0,0.23774874,5.159243,4.847244)">
      <path
         inkscape:connector-curvature="0"
         id="path4243"
         d="M 787.636,2518.55 C 684.634,2490.1824 591.711,2450.0944 503.329,2395.159 430.3305,2349.2741 346.824,2283.831 290.807,2221.26 203.5071,2124.4855 165.03,2067.946 105.96,1953.345 54.3612,1848.936 22.5998,1729.769 9.5352,1634.314 3.04742,1580.3876 -0.5182,1525.021 0.06065,1491.826 L 0.516403,0.006 2126.4064,0.152231 2126.5782,1492.6722 c 0.1792,35.1722 -0.7982,51.8584 -3.1586,84.5069 -6.4877,89.9942 -28.0825,187.11 -56.539,265.993 -32.796,93.6403 -80.5441,185.906 -139.557,267.995 -78.2239,105.964 -160.175,186.654 -264.61,257.348 -129.536,91.5735 -338.583,186.337 -597.975,186.711 -106.96397,0 -208.10297,-16.507 -277.10297,-36.6699 z" />
      <path
         style="fill:#ffffff"
         inkscape:connector-curvature="0"
         id="path4245"
         d="m 755.361,2469.59 c -77.3282,-23.9807 -176.863,-69.1478 -247.442,-116.612 -82.3829,-52.4604 -183,-141.477 -241.126,-217.666 -42.1474,-50.4509 -89.586,-121.78 -121.836,-189.373 -52.1765,-106.167 -81.9844,-203.537 -97.4009,-317.168 -6.46341,-50.0768 -8.64469,-88.8707 -9.47455,-136.024 l 6.34033,-1448.09 2043.97002,-0.0329 0.5776,1447.84 c -3.3621,77.3611 -0.3985,53.6412 -3.3865,79.7459 -4.8841,78.9319 -28.9781,193.597 -59.2175,271.471 -32.6156,91.2311 -80.2577,177.693 -136.569,255.167 -68.8882,91.4261 -138.06,160.346 -241.582,234.923 -134.071,93.494 -335.254,183.236 -585.505,183.236 -116.38298,-0.1462 -229.24198,-20.7404 -307.34198,-47.4142 z" />
      <path
         inkscape:connector-curvature="0"
         id="path4247"
         d="m 876.684,2238.92 0.22909,-91.9477 -286.782,0 c -21.3107,0.1377 -40.634,-3.4194 -48.8473,-11.2903 l -13.4959,40.1782 -12.1774,0.1706 -15.1556,24.6643 -17.2565,-25.1274 -15.5968,0.2279 -0.11332,-42.5557 -40.8618,47.6677 -14.5049,-11.6571 -28.5711,8.0671 0.0573,-31.6152 -11.5425,-12.4625 29.1731,-40.5121 -49.4736,-0.089 0,-16.4827 -23.7772,-18.0059 24.9568,-13.7238 5.73835,-8.8726 7.81483,-13.87 -20.4797,-24.8422 36.4993,-2.9551 8.43997,-14.7328 59.527,23.3775 127.958,-0.1706 c -24.9251,-0.033 -81.0083,-48.5621 -81.0644,-105.647 l -0.3997,-152.849 c 0.37533,-26.6823 -36.1812,-42.4411 -36.1812,-79.2572 0,-187.2 2.09232,-379.845 2.09232,-587.142 -1.14791,0 -0.7738,-0.3741 0,-0.3741 l -1.63657,-392.02997 c 0,-24.1184 7.64301,-64.6061 14.5049,-85.1918 l -23.0265,6.65839 c 14.8144,-120.778 83.7587,-227.337 146.932,-295.54 l 0.1706,-171.661 21.2535,-0.089 -0.0573,155.926 c 34.374,-33.7648 95.3085,-25.6733 110.123,21.2206 29.5801,124.14 43.589,166.467 130.31,259.098 19.3244,-9.24668 39.2594,-16.5083 59.3808,-23.0277 l 24.1501,-77.7925 c -45.4852,-40.8289 -75.6587,-89.2448 -77.784,-162.12 -1.23687,-84.223 49.816,-160.379 122.782,-191.791 18.86753,-8.79092 61.39883,-16.6301 80.40513,-17.2321 124.824,0 205.205,98.2319 207.24,189.088 -0.3754,0.40701 -1.1479,3.07695 0,5.37277 -0.3754,0 -0.3754,0 -0.3754,0.39848 0,78.3945 -24.094,119.314 -74.4877,168.071 l 21.2206,85.6317 c 25.1042,5.91748 54.7331,13.7311 65.1277,17.6062 62.7417,-62.3432 102.317,-134.796 118.425,-244.284 10.6797,-61.7083 76.2948,-68.6591 116.294,-25.0957 72.7707,90.4829 114.405,169.048 150.042,300.042 l -23.0034,-4.21633 c 4.3382,17.5173 5.9419,32.9093 6.5195,52.5189 l -1.611,818.16506 c -0.513,37.5899 -13.6909,85.3136 -25.1761,104.296 -9.6549,25.3223 -26.6823,47.6335 -54.2444,68.1376 -34.5776,25.0957 -78.7113,41.4407 -154.437,41.4407 -42.1803,-1.7828 -102.057,-15.1971 -141.909,-56.6048 l -0.8627,132.467 109.147,-34.8298 -1.115,31.4446 89.3009,-36.2958 11.4609,19.8119 66.7301,-55.9127 20.6759,17.2565 49.4493,-76.6117 25.014,8.8153 23.5724,-93.778 19.6084,-0.9201 -7.3177,-88.9036 23.1983,-11.9739 -15.8478,-93.9011 15.336,-9.5964 0.1377,-331.314 20.1872,-0.17182 c 74.1452,169.99202 115.235,363.71202 103.465,546.22302 -9.4745,156.504 -51.1419,284.316 -122.617,394.757 13.6178,8.8153 25.4198,15.4408 26.0474,52.3471 l -0.3753,71.6715 c 0,51.5404 -35.6036,74.2829 -83.5625,73.5993 l -112.273,-0.2924 c -18.1765,-0.139 -47.6677,-5.0791 -60.7882,-14.2368 l -41.0982,68.1961 -23.8905,-27.8546 -7.9854,0.2278 0,-48.6681 -39.8845,53.3232 -19.1209,-13.87 -29.1158,10.9405 -0.1706,-19.1538 -68.0572,0.09 -0.09,91.9147 c -0.2035,248.874 -372.64102,248.248 -372.49402,0.033 z" />
      <path
         style="fill:#ffffff"
         inkscape:connector-curvature="0"
         id="path4249"
         d="m 900.315,2239.52 0.31683,-215.916 324.33897,-0.082 0,214.932 c 1.1809,221.427 -324.82797,220.418 -324.65597,1.0662 z" />
      <path
         inkscape:connector-curvature="0"
         id="path4251"
         d="m 1064.28,2172.3 c -13.7884,-1.7255 -26.1364,-14.0406 -25.5015,-30.0919 1.204,-9.5891 5.7713,-19.4707 17.1176,-24.6643 l 0,-27.4793 -84.5155,0.024 10.7687,-21.5057 28.7502,0.057 c 4.4442,-39.2594 68.3984,-39.6006 71.6715,-0.057 l 68.8297,0 -11.0538,21.5374 -61.1953,-0.056 -0.024,27.1624 c 10.0765,5.1364 19.9837,15.994 16.507,33.1043 -3.7606,14.8473 -16.4498,23.1496 -31.3544,21.9688 z" />
      <path
         style="fill:#078930"
         inkscape:connector-curvature="0"
         id="path4253"
         d="m 488.563,2157.02 0,-60.1534 -14.929,-1.929 -52.0302,56.4574 -21.9444,-17.3698 29.6374,-44.7455 -12.4954,-16.3937 -47.0316,-0.1706 0,-24.2646 36.4091,0.1133 0,-19.1526 -21.0731,-1.5549 13.7798,-24.0855 44.6797,20.0081 216.69,-0.2852 -0.57761,-21.4241 c -90.539,0.1219 -141.218,-64.0602 -141.218,-112.932 l -0.17061,-153.517 c 0.0816,-31.012 -36.1812,-46.5185 -36.1812,-75.4321 l -0.0573,-142.316 57.5407,-76.4654 -0.26078,-87.1537 c 1.03337,-10.1411 8.21331,-11.7777 16.3121,-14.7328 l -1.54639,270.331 c 0.60199,66.9909 100.991,69.0016 100.843,-1.009 l 0.71653,-312.943 c 34.0572,-12.861 49.3688,-8.2376 49.8246,10.7443 -0.37532,59.4125 -0.37532,119.199 -0.37532,178.954 23.174,5.3716 42.0097,16.0513 42.8152,34.6592 l 0.31805,84.1657 c 19.5523,6.0321 41.4394,20.5857 41.8952,35.4086 l 0.43138,37.3852 -47.1534,-16.5156 c -17.2809,-6.3403 -19.2099,-24.1744 -39.6822,-24.1744 l 0.0256,95.707 c 0.6093,28.0825 16.6862,58.7532 59.9572,48.4732 l 94.503,-25.1274 0.17914,32.0136 93.8925,-33.3322 -0.0561,33.5113 103.52201,-31.9893 1.1479,33.1615 92.8665,-34.1389 -0.1463,56.9387 c 1.4977,23.2629 12.8366,38.5989 34.4886,44.4506 47.6994,10.8589 93.5586,-33.967 94.1862,-58.8093 l 0.1134,-15.5639 89.6518,-27.7973 0.3997,30.8743 100.885,-43.4172 13.6909,28.4809 71.2718,-63.6044 30.6707,24.1257 46.0311,-87.869 33.6258,10.9405 22.7097,-100.65 28.693,0.546 -7.4968,-96.2858 22.8315,-11.8033 -14.1868,-93.8925 15.0752,-8.0427 0.2595,-264.414 c 124.653,321.817 94.3568,638.032 -46.5514,851.01 -5.3715,-3.3292 -16.8824,-5.1364 -27.3659,-6.3733 l -59.5831,-0.3741 0.1463,22.1967 45.6801,-0.024 c 32.9093,-0.2924 66.4535,19.8935 67.5441,42.9298 l -0.1706,76.6689 c 0,28.6028 -22.4903,51.4843 -56.344,51.7451 l -101.398,0.1706 c -30.1492,0 -63.1158,-8.5301 -85.02,-21.9944 l -25.9329,47.6104 -18.1765,-0.1145 -0.09,-45.1427 -25.7208,-8.5314 -41.8148,50.2231 -19.2672,-14.383 25.616,-42.8152 -20.9025,-20.9025 -35.2697,-0.09 0.1791,-25.4125 27.422,0.1145 0,-17.6318 -12.2663,-4.5904 13.9846,-20.0154 c 26.5032,22.5708 70.409,25.811 97.0024,24.0367 13.7798,13.7811 28.0008,26.6409 49.7344,26.4459 l 101.626,0.024 -0.3997,-20.2104 -99.6467,-0.1718 c -10.0778,0.513 -27.5048,-9.2467 -35.8315,-23.1167 l -58.6399,-98.8668 c -11.9495,-23.7516 -15.2214,-51.6062 20.6186,-51.6634 l 103.945,0 c 47.3252,0.033 112.94,-36.9867 138.67,-59.6403 l -13.8371,-16.3681 c -26.3642,22.7743 -88.3333,56.4245 -127.673,56.539 l -115.577,0.056 c -33.8854,0 -48.4719,34.2851 -31.0449,70.6698 l 58.3218,98.8095 c -33.5357,1.2941 -65.9331,-7.8953 -92.6886,-31.6968 l -14.7657,15.5882 -29.3193,5.5762 18.4373,21.3583 -18.5506,5.714 0,14.9619 -20.9927,18.4934 22.1723,14.3916 -0.033,15.3835 51.6074,0 -27.8546,46.3808 -63.2303,0.082 -0.057,-123.701 -372.26591,0.1706 -0.0317,123.53 -285.634,-0.082 c -26.3326,0.057 -50.9152,-8.8482 -60.5604,-18.0047 l -18.5506,48.9606 -23.6053,0.082 z" />
      <path
         style="fill:#ffffff"
         inkscape:connector-curvature="0"
         id="path4255"
         d="m 1032.55,2068.58 c 1.6037,-16.5729 27.3013,-16.256 28.9452,0.057 z" />
      <path
         inkscape:connector-curvature="0"
         id="path4257"
         d="m 704.333,1863.09 21.8225,0.1706 c 0,58.2085 53.4133,97.3204 96.1969,97.9224 44.6224,-46.0067 118.564,-48.2124 160.435,-11.8033 28.197,-32.7948 116.27,-32.852 148.283,-3.3852 17.9243,-15.1654 41.4078,-24.3219 64.3855,-29.3522 -80.8365,-59.4697 -234.865,-86.5432 -337.061,-89.1888 l -1.40747,-19.2099 c 89.9613,2.2714 285.54397,22.8328 413.35597,124.596 -57.7771,1.1808 -109.237,20.0726 -135.65,40.2269 -38.1358,-36.5797 -117.621,-40.9179 -150.00897,3.4522 -42.8165,-44.4518 -112.078,-44.135 -157.733,6.1454 -68.2046,-3.5656 -120.836,-48.4488 -122.618,-119.574 z" />
      <path
         style="fill:#f2a772"
         inkscape:connector-curvature="0"
         id="path4259"
         d="m 1191.78,1837.02 c -10.6797,-2.8162 -20.186,-7.8953 -21.0731,-24.5254 l 0,-64.3782 86.6309,-36.1812 0.033,80.8938 c 0.2852,24.2561 -42.9615,48.4646 -65.5907,44.191 z" />
      <path
         style="fill:#ffffff"
         inkscape:connector-curvature="0"
         id="path4261"
         d="m 724.202,1726.67 0.78112,-50.2316 86.3153,31.6481 0.1706,-65.1508 c -2.20565,-34.4642 -24.9811,-45.3718 -41.4078,-53.0965 l -0.60198,-67.4308 c -2.35188,-38.3052 -24.5498,-43.3599 -42.8969,-50.9055 l 0,-65.9904 133.721,-127.209 -1.69262,455.253 -98.3209,27.422 c -24.3792,4.9743 -35.3757,-12.3724 -36.0679,-34.3082 z" />
      <path
         style="fill:#0f47af"
         inkscape:connector-curvature="0"
         id="path4263"
         d="m 881.765,1201.05 176.285,89.88 -1.92,439.95 -82.793,28.75 0.228,-36.27 -92.916,34.92 z" />
      <path
         style="fill:#0f47af"
         inkscape:connector-curvature="0"
         id="path4265"
         d="m 1081.05,1756.93 2.068,-556.65 133.582,67.6501 -0.7483,199.287 c 0.6105,67.8536 16.6862,106.966 42.1316,131.832 l -0.7494,89.2777 -176.284,68.6031 z" />
      <path
         style="fill:#fcdd09"
         inkscape:connector-curvature="0"
         id="path4267"
         d="m 1436.32,1657.58 c -20.5613,0.1145 -69.1234,-5.4617 -103.522,-24.4352 -31.7297,-20.3334 -60.3898,-46.0628 -74.2842,-70.9879 -4.2249,-6.5195 -18.8114,-49.5382 -20.3663,-76.1559 l 0.1791,-298.348 237.129,-0.3181 5.6811,16.5972 -60.5592,0 -36.9221,28.9696 0.1377,22.7755 -20.3249,0 -22.1979,-12.9829 -11.835,17.1176 27.5377,17.7208 26.82,0 0,20.9025 36.2958,-0.2607 -15.2141,16.1415 -31.1021,-0.089 -49.7661,-27.879 c -0.3997,-0.7811 -0.7738,-1.5549 -0.7738,-1.929 l -14.9607,-41.3749 -20.1299,-0.1146 4.7379,25.3565 -20.2445,-11.0868 -13.4057,15.3348 25.5258,18.1436 -19.4134,11.8922 10.9405,16.5412 25.5917,-14.4159 21.8225,63.775 20.6186,-0.1133 -40.8618,33.3651 -15.5066,-17.778 -16.4595,12.9268 11.9166,14.5293 -26.7627,-0.1706 0.2925,21.5045 29.7751,0.1718 -15.2214,15.9124 15.8246,15.1568 18.3471,-20.1543 15.392,16.6216 16.947,-12.6002 -11.8021,-14.9363 64.4916,-0.1718 27.1953,-19.177 56.628,41.6917 -68.1132,0.09 c -12.3236,0.3656 -30.8998,-0.5776 -31.8187,24.5169 l 0,46.0311 -37.964,15.9696 -14.6682,-28.3993 -20.5613,8.953 5.7383,16.858 -28.0825,0.09 -0.057,23.0265 29.6947,0.2607 -5.3727,23.0034 20.3907,6.3976 10.28,-26.7067 16.769,27.8546 20.3895,-9.8486 -12.1201,-20.7002 101.626,0.024 -15.5395,-29.9213 34.1145,-9.1821 c -0.3169,12.7465 9.2795,26.5604 19.9264,29.4899 l -23.776,37.9323 -17.2004,-17.3467 -17.4844,13.0645 15.1325,16.5729 -21.2778,12.7148 12.0884,16.6045 21.1633,-12.8111 0.3168,19.6169 19.9264,-0.4887 0.1706,-25.014 6.3172,-0.4643 17.6635,16.7764 15.3348,-12.348 -17.6635,-18.4361 87.3816,-45.9738 0,-69.7827 -48.6681,9.9949 -0.7165,-24.4023 c 8.2376,8.8397 22.1321,10.882 31.5823,10.882 11.144,-0.5776 23.3458,-4.4844 31.1021,-15.4493 9.7597,-18.6067 3.5582,-36.9867 -4.7123,-53.5267 18.8675,-12.0641 20.5942,-11.6887 6.6669,-31.4446 l -19.389,11.6315 -9.2723,-15.3677 c 27.1953,-16.0757 30.1504,-14.8144 13.5532,-35.8315 l -24.6387,16.4266 -8.9627,-14.6767 c 38.1115,-26.2509 39.5189,-24.1257 23.3775,-43.9388 l -34.8627,26.1376 c -13.4386,-22.4903 -13.8944,-16.4023 28.8892,-47.1546 10.0522,12.1774 14.2198,11.9495 41.7246,-5.5105 l -9.1907,-11.1757 -19.0953,-0.7409 24.9239,-21.5947 -14.0418,-15.2214 -24.8093,20.2762 0.056,-16.8336 -8.1804,-10.826 c -19.3232,15.9952 -18.0949,23.8661 -9.3929,45.7216 l -36.0679,34.5702 c -5.9663,6.8376 -7.9526,14.0406 -2.67,25.209 l 65.5018,112.655 c 12.0872,20.4711 -24.3219,32.3877 -37.9311,6.9192 -28.1397,-52.2008 -35.8644,-58.4607 -68.6031,-65.152 l 0,-8.0415 24.0611,-0.057 0,-87.1525 18.0949,0.024 -5.7469,-30.4672 32.194,-17.6318 -14.929,-44.2715 97.7189,0.1133 0.5119,284.478 c -1.0334,30.5245 -10.826,59.7061 -23.8893,85.8023 -18.0632,34.0572 -26.162,49.4493 -63.4911,72.4526 -48.1551,23.5164 -78.7929,26.2753 -111.613,27.0808 z" />
      <path
         style="fill:#ffffff"
         inkscape:connector-curvature="0"
         id="path4269"
         d="m 577.872,1607.09 54.415,0 c 0,44.8259 -54.415,43.9631 -54.415,0 z" />
      <path
         style="fill:#ffffff"
         inkscape:connector-curvature="0"
         id="path4271"
         d="m 634.208,1585.64 -59.039,0 -0.569,-27.22 59.608,0 z" />
      <path
         inkscape:connector-curvature="0"
         id="path4273"
         d="m 705.105,1544.64 0,-38.5099 21.05,8.2133 c -0.71653,0 -0.74943,28.8879 -0.74943,34.1133 0.74943,0 1.21372,0.407 0,0.407 l 0.57883,4.0128 -20.8794,-8.2364 z" />
      <path
         style="fill:#ffffff"
         inkscape:connector-curvature="0"
         id="path4275"
         d="m 634.037,1539.09 -59.095,0 0.227,-29.75 59.039,0.41 z" />
      <path
         style="fill:#ffffff"
         inkscape:connector-curvature="0"
         id="path4277"
         d="m 634.208,1461.65 0,27.42 -58.265,-0.4 -0.602,-29.32 28.001,15.54 z" />
      <path
         style="fill:#fcdd09"
         inkscape:connector-curvature="0"
         id="path4279"
         d="m 482.051,1483.7 -0.48866,-801.739 c 0,-35.9777 10.21551,-72.07 22.6536,-87.1781 l 43.7024,-12.8037 c 13.6665,47.3167 27.7157,74.8057 51.6634,119.077 l 0.45576,576.153 c -19.177,-14.0406 -37.3535,-28.5467 -39.9991,-49.303 l -0.20351,-85.8669 -20.7002,0 0.3997,88.3333 c 0,33.1372 33.6258,57.3128 55.5617,75.1225 l 0,27.5938 -18.3715,0 0.22788,-16.6862 c -40.3488,3.4181 -58.3535,22.7426 -58.4924,36.2141 l -0.14623,81.837 -36.2629,49.2457 z" />
      <path
         style="fill:#ffffff"
         inkscape:connector-curvature="0"
         id="path4281"
         d="m 596.879,1447.29 -20.936,-8.81 -0.57,-84.69 20.505,0 z" />
      <path
         style="fill:#ffffff"
         inkscape:connector-curvature="0"
         id="path4283"
         d="m 634.208,1439.25 -17.46,8.61 0,-114.6 17.46,0.4 z" />
      <path
         style="fill:#fcdd09"
         inkscape:connector-curvature="0"
         id="path4285"
         d="m 727.336,1371.02 0,-72.4209 c -2.98799,-33.7148 -13.4959,-39.3154 -49.0751,-32.1928 l -43.678,12.2663 c -0.37533,10.3385 -0.37533,20.6759 -0.37533,31.4116 l -13.1535,0 0.31684,-573.563 c 35.4086,68.9199 65.241,92.663 89.4812,78.4517 l 88.9853,-51.4039 60.5921,40.2598 -0.14623,444.173 -132.947,123.018 z" />
      <path
         style="fill:#fcdd09"
         inkscape:connector-curvature="0"
         id="path4287"
         d="m 1421.25,1275.71 -36.13,0 0.46,-18.8 35.37,-0.37 z" />
      <path
         style="fill:#ffffff"
         inkscape:connector-curvature="0"
         id="path4289"
         d="m 1261.19,1168.89 -43.51,-1.01 -0.98,72.08 -132.98,-66.67 -0.77,-86.23 -23.38,0 -0.77,177.43 -176.116,-87.93 0,-179.213 378.096,-0.748 z" />
      <path
         style="fill:#fcdd09"
         inkscape:connector-curvature="0"
         id="path4291"
         d="m 1415.18,1237.87 22.54,-14.77 -0.28,14.94 z" />
      <path
         style="fill:#f2a772"
         inkscape:connector-curvature="0"
         id="path4293"
         d="m 1513.54,1228.85 -22.2308,-60.8455 -21.0731,0.1145 -10.9734,-19.584 -18.575,7.7247 5.1936,12.0299 -46.4296,0 c 0.3181,-16.3121 0.8055,-39.0218 16.9396,-46.7464 l -132.63,-382.83999 -0.033,-149.805 c 27.138,5.56775 50.0196,27.1051 62.3675,70.409 l 127.355,472.57399 c 12.9512,0.6264 24.1756,6.7473 28.7417,18.0303 l 27.3086,73.0217 -15.9611,5.9175 z" />
      <g
         style="fill:#fcdd09"
         id="g4295">
        <path
           inkscape:connector-curvature="0"
           id="path4297"
           d="m 1282.24,1168.89 0.7397,-364.429 107.943,310.355 c -8.9871,10.6797 -13.87,33.4881 -13.268,53.0965 l -95.4145,0.9773 z" />
        <path
           inkscape:connector-curvature="0"
           id="path4299"
           d="m 1529.42,1167.75 -17.265,-40.8375 c -4.4771,-8.9871 -11.3061,-11.7131 -22.221,-13.407 l -100.048,-372.926 c 75.0909,-43.7109 125.516,-104.442 150.042,-172.783 l 87.6655,21.8554 c 7.2689,13.9833 9.6464,39.3642 9.8828,65.1264 l -2.67,512.768 -105.386,0.2035 z" />
        <path
           inkscape:connector-curvature="0"
           id="path4301"
           d="m 1261.15,976.728 -377.489,0.717 -0.374,-60.153 378.243,-0.782 z" />
        <path
           inkscape:connector-curvature="0"
           id="path4303"
           d="m 900.689,896.812 c 78.8502,-43.7024 152.279,-131.629 171.831,-231.757 17.8024,102.594 88.9926,194.2 174.965,230.381 l -346.797,1.37579 z" />
        <path
           inkscape:connector-curvature="0"
           id="path4305"
           d="m 883.287,881.656 0.37411,-177.204 c 33.2261,-38.0786 48.1551,-88.8463 53.6656,-132.842 l 29.9786,-7.49678 11.8033,47.7323 c 1.7828,10.7041 14.6194,20.6746 31.98929,20.7563 14.9607,0.0902 29.0598,0.28515 44.6553,0.28515 -8.8726,99.1264 -88.90359,208.941 -172.46599,248.769 z" />
        <path
           inkscape:connector-curvature="0"
           id="path4307"
           d="m 1090.62,633.318 53.8935,0.40701 c 14.7901,0 22.3441,-8.8153 25.4454,-26.8529 l 11.4852,-45.2256 23.8332,6.35008 c 6.9764,53.0063 25.2419,89.4154 55.8798,126.802 l -0.3741,186.051 c -106.534,-53.3804 -158.881,-149.577 -170.163,-247.531 z" />
      </g>
      <path
         style="fill:#f2a772"
         inkscape:connector-curvature="0"
         id="path4309"
         d="m 621.2,691.99 0.1706,-79.8592 c 25.5917,32.9337 56.946,63.6617 99.0459,100.128 44.3616,-45.6241 91.2226,-91.4029 141.795,-108.455 l 0,95.8216 -151.36,92.7775 c -29.8653,18.1521 -66.5668,-55.2205 -89.6518,-100.413 z" />
      <path
         style="fill:#fcdd09"
         inkscape:connector-curvature="0"
         id="path4311"
         d="m 821.953,751.915 40.545,-27.479 -0.286,52.208 z" />
      <path
         style="fill:#fcdd09"
         inkscape:connector-curvature="0"
         id="path4313"
         d="m 1384.54,721.074 c -26.0718,-104.182 -39.2509,-124.246 -74.7155,-143.317 56.3928,-59.3235 96.4564,-123.189 114.543,-225.383 10.6797,-74.7813 51.4282,-69.0101 85.4842,-35.3843 53.9593,66.3645 105.045,155.698 135.284,256.176 l -119.574,-27.6023 c -24.7849,72.2247 -78.5651,135.683 -141.022,175.511 z" />
      <path
         style="fill:#fcdd09"
         inkscape:connector-curvature="0"
         id="path4315"
         d="M 720.873,680.985 C 679.9539,646.7328 653.9065,619.9689 621.2007,575.689 l 0.1706,-44.1667 c 18.982,-9.4185 32.4779,-32.8764 40.8058,-60.6993 l -25.4942,-98.8412 -15.5066,8.49846 0.17061,-60.7882 c 43.2722,-42.2376 79.5997,-21.1645 87.5766,5.51047 25.5027,120.518 51.2893,173.964 132.582,262.516 -43.4184,22.4903 -90.539,59.1846 -120.632,93.2662 z" />
      <path
         style="fill:#fcdd09"
         inkscape:connector-curvature="0"
         id="path4317"
         d="m 884.15,675.157 0.28515,-84.3619 c 10.2557,-5.03035 20.3005,-9.70974 33.7392,-14.4147 -2.3531,29.7507 -12.5198,67.4539 -34.0243,98.7766 z" />
      <path
         style="fill:#fcdd09"
         inkscape:connector-curvature="0"
         id="path4319"
         d="m 1226.66,575.062 35.2624,9.96199 0,78.0447 c -20.2445,-29.864 -28.1641,-51.1419 -35.2624,-88.0067 z" />
      <path
         style="fill:#f2a772"
         inkscape:connector-curvature="0"
         id="path4321"
         d="m 620.452,401.243 18.1753,71.3303 c -12.1445,28.1385 -14.3501,35.1722 -39.0461,46.5758 l 0.39848,134.787 c -23.1167,-41.7246 -44.3616,-103.083 -40.5438,-155.576 2.95387,-40.8375 21.9932,-75.3504 61.0161,-97.1169 z" />
      <path
         style="fill:#f2a772"
         inkscape:connector-curvature="0"
         id="path4323"
         d="m 1008.23,615.688 c -6.5195,-0.37411 -8.96153,-5.79562 -10.7443,-11.1111 l -9.99611,-44.7686 42.58741,-11.2001 0.2851,-39.9991 c 16.54,22.5708 68.8383,19.584 87.8447,2.47374 0,12.6331 0.3997,25.2663 0.7738,38.3064 l 42.9286,8.03418 -11.2001,48.0978 c -2.6699,7.17873 -9.3843,10.5981 -17.7451,10.1667 l -124.734,0 z" />
      <path
         style="fill:#fcdd09"
         inkscape:connector-curvature="0"
         id="path4325"
         d="m 481.757,579.562 c -1.17229,-55.5861 68.6604,-187.077 118.199,-236.266 l -0.37411,45.1111 c -58.8677,41.0653 -72.4197,108.227 -56.026,176.056 l -61.7985,15.0984 z" />
      <path
         style="fill:#fcdd09"
         inkscape:connector-curvature="0"
         id="path4327"
         d="m 1139.54,533.475 0,-42.8725 c 7.5772,-6.77172 18.8918,-68.5373 23.174,-90.1319 l 36.8405,146.533 -60.0144,-13.5288 z" />
      <path
         style="fill:#fcdd09"
         inkscape:connector-curvature="0"
         id="path4329"
         d="m 947.664,546.719 39.9186,-153.778 c 2.35188,28.4005 12.2005,91.4346 20.5601,97.898 l -0.3168,42.4655 -60.16193,13.4143 z" />
      <path
         style="fill:#f2a772"
         inkscape:connector-curvature="0"
         id="path4331"
         d="m 1019.72,466.224 c -5.7469,-33.3651 -11.4852,-66.7618 -17.2321,-100.127 l 144.465,0.2035 c -6.3732,33.8208 -12.7794,67.6489 -19.1526,101.478 -11.8277,51.2564 -98.0357,51.2564 -108.081,-1.55491 z" />
      <path
         inkscape:connector-curvature="0"
         id="path4333"
         d="m 1042.89,469.008 65.0046,0.2035 c -9.9303,25.6977 -59.3796,26.67381 -65.0046,-0.2035 z" />
      <path
         inkscape:connector-curvature="0"
         id="path4335"
         d="m 1127.02,402.539 -42.53,1.228 -1.63,49.075 -17.54,-0.024 -0.49,-69.668 67.16,0 z" />
      <path
         style="fill:#fcdd09"
         inkscape:connector-curvature="0"
         id="path4337"
         d="m 950.367,449 c -39.1692,-36.7917 -61.0807,-82.9033 -62.253,-140.282 1.17229,-78.6223 54.504,-145.523 112.622,-168.812 23.174,-8.30227 48.5536,-15.3348 74.601,-15.3348 87.7801,1.35142 176.797,75.9195 178.954,171.001 1.1808,67.8207 -14.1308,104.898 -58.663,147.648 l -22.6049,-80.226 10.3373,-76.8724 -21.1304,0.37411 -3.7935,18.7785 c -6.227,-42.3266 -50.0756,-69.2294 -85.3941,-69.2294 -33.9999,1.17229 -70.9306,25.2992 -81.29228,67.7074 l -6.60964,-16.9713 c -7.6686,0 -13.3253,-1.05896 -19.0637,0.089 l 11.4852,67.0798 -27.1953,95.049 z" />
      <path
         inkscape:connector-curvature="0"
         id="path4339"
         d="m 1053.83,403.596 -32.57,-0.203 -4.33,-20.325 37.19,-0.407 z" />
      <path
         style="fill:#fcdd09"
         inkscape:connector-curvature="0"
         id="path4341"
         d="m 1002.49,347.432 c 0,-31.932 23.8003,-91.6869 73.2825,-91.6869 47.0328,0 71.9566,54.415 71.9566,91.3128 l -19.6413,0 -54.6429,-55.3107 -48.0661,55.5958 z" />
      <path
         style="fill:#fcdd09"
         inkscape:connector-curvature="0"
         id="path4343"
         d="m 1052.31,347.717 23.57,-25.698 27.03,25.698 z" />
      <path
         inkscape:connector-curvature="0"
         id="path4345"
         d="m 1065.89,2335.63 c 15.8234,0 28.7173,12.8939 28.7173,28.7173 0,15.8234 -12.8939,28.7173 -28.7173,28.7173 -15.8234,0 -28.7417,-12.8939 -28.7417,-28.7173 0,-15.8234 12.9183,-28.7173 28.7417,-28.7173 z" />
      <path
         style="fill:#0f47af"
         inkscape:connector-curvature="0"
         id="path4347"
         d="m 1065.89,2350.08 c 7.7819,0 14.1308,6.3416 14.1308,14.1235 0,7.7819 -6.3489,14.1308 -14.1308,14.1308 -7.7819,0 -14.1552,-6.3489 -14.1552,-14.1308 0,-7.7819 6.3732,-14.1235 14.1552,-14.1235 z" />
      <path
         inkscape:connector-curvature="0"
         id="path4349"
         d="m 1031.49,2282.25 c 15.8234,0 28.7417,12.9171 28.7417,28.7417 0,15.8234 -12.9183,28.7173 -28.7417,28.7173 -15.8246,0 -28.7173,-12.8939 -28.7173,-28.7173 0,-15.8246 12.8927,-28.7417 28.7173,-28.7417 z" />
      <path
         style="fill:#0f47af"
         inkscape:connector-curvature="0"
         id="path4351"
         d="m 1031.49,2296.69 c 7.7819,0 14.1552,6.3501 14.1552,14.1637 0,7.7819 -6.3732,14.1223 -14.1552,14.1223 -7.7819,0 -14.1308,-6.3403 -14.1308,-14.1223 0,-7.8136 6.3489,-14.1637 14.1308,-14.1637 z" />
      <path
         inkscape:connector-curvature="0"
         id="path4353"
         d="m 1100.26,2281.67 c 15.849,0 28.7417,12.8939 28.7417,28.7173 0,15.8246 -12.8927,28.7173 -28.7417,28.7173 -15.8234,0 -28.7161,-12.8927 -28.7161,-28.7173 0,-15.8234 12.8927,-28.7173 28.7161,-28.7173 z" />
      <path
         style="fill:#0f47af"
         inkscape:connector-curvature="0"
         id="path4355"
         d="m 1100.26,2296.09 c 7.8148,0 14.1552,6.3818 14.1552,14.1637 0,7.7819 -6.3403,14.1223 -14.1552,14.1223 -7.7807,0 -14.1296,-6.3403 -14.1296,-14.1223 0,-7.7819 6.3489,-14.1637 14.1296,-14.1637 z" />
      <path
         inkscape:connector-curvature="0"
         id="path4357"
         d="m 997.113,2225.34 c 15.8246,0 28.7173,12.8939 28.7173,28.7173 0,15.8161 -12.8927,28.7417 -28.7173,28.7417 -15.8234,0 -28.7417,-12.9256 -28.7417,-28.7417 0,-15.8234 12.9183,-28.7173 28.7417,-28.7173 z" />
      <path
         style="fill:#0f47af"
         inkscape:connector-curvature="0"
         id="path4359"
         d="m 997.113,2239.78 c 7.7819,0 14.1308,6.3489 14.1308,14.1308 0,7.8136 -6.3489,14.1552 -14.1308,14.1552 -7.80508,0 -14.1552,-6.3415 -14.1552,-14.1552 0,-7.7819 6.35008,-14.1308 14.1552,-14.1308 z" />
      <path
         inkscape:connector-curvature="0"
         id="path4361"
         d="m 1061.73,2226.52 c 15.8234,0 28.7417,12.9171 28.7417,28.7417 0,15.8234 -12.9183,28.7173 -28.7417,28.7173 -15.8234,0 -28.7173,-12.8939 -28.7173,-28.7173 0,-15.8246 12.8939,-28.7417 28.7173,-28.7417 z" />
      <path
         style="fill:#0f47af"
         inkscape:connector-curvature="0"
         id="path4363"
         d="m 1061.73,2240.96 c 7.8063,0 14.1552,6.3489 14.1552,14.1552 0,7.7807 -6.3489,14.1308 -14.1552,14.1308 -7.7819,0 -14.1308,-6.3501 -14.1308,-14.1308 0,-7.8063 6.3489,-14.1552 14.1308,-14.1552 z" />
      <path
         inkscape:connector-curvature="0"
         id="path4365"
         d="m 1135.84,2225.94 c 15.849,0 28.7417,12.8927 28.7417,28.7173 0,15.8234 -12.8927,28.7161 -28.7417,28.7161 -15.8234,0 -28.7173,-12.8927 -28.7173,-28.7161 0,-15.8246 12.8939,-28.7173 28.7173,-28.7173 z" />
      <path
         style="fill:#0f47af"
         inkscape:connector-curvature="0"
         id="path4367"
         d="m 1135.84,2240.38 c 7.8148,0 14.1552,6.3489 14.1552,14.1308 0,7.7819 -6.3403,14.1308 -14.1552,14.1308 -7.7807,0 -14.1308,-6.3489 -14.1308,-14.1308 0,-7.7819 6.3501,-14.1308 14.1308,-14.1308 z" />
      <path
         inkscape:connector-curvature="0"
         id="path4369"
         d="m 964.497,2169.59 c 15.8234,0 28.7088,12.8927 28.7088,28.7173 0,15.8234 -12.8854,28.749 -28.7088,28.749 -15.8234,0 -28.7173,-12.9256 -28.7173,-28.749 0,-15.8246 12.8939,-28.7173 28.7173,-28.7173 z" />
      <path
         style="fill:#0f47af"
         inkscape:connector-curvature="0"
         id="path4371"
         d="m 964.497,2184.04 c 7.78193,0 14.1223,6.3489 14.1223,14.1308 0,7.7819 -6.34033,14.1552 -14.1223,14.1552 -7.78193,0 -14.1308,-6.3732 -14.1308,-14.1552 0,-7.7819 6.34887,-14.1308 14.1308,-14.1308 z" />
      <path
         inkscape:connector-curvature="0"
         id="path4373"
         d="m 1032.09,2169.59 c 15.8234,0 28.7173,12.8927 28.7173,28.7173 0,15.8234 -12.8939,28.749 -28.7173,28.749 -15.8234,0 -28.7173,-12.9256 -28.7173,-28.749 0,-15.8246 12.8939,-28.7173 28.7173,-28.7173 z" />
      <path
         style="fill:#0f47af"
         inkscape:connector-curvature="0"
         id="path4375"
         d="m 1032.09,2184.04 c 7.7819,0 14.1308,6.3489 14.1308,14.1308 0,7.7819 -6.3489,14.1552 -14.1308,14.1552 -7.7819,0 -14.1308,-6.3732 -14.1308,-14.1552 0,-7.7819 6.3489,-14.1308 14.1308,-14.1308 z" />
      <path
         inkscape:connector-curvature="0"
         id="path4377"
         d="m 1097.31,2170.21 c 15.8149,0 28.7417,12.8927 28.7417,28.7088 0,15.8234 -12.9268,28.7502 -28.7417,28.7502 -15.8246,0 -28.7173,-12.9268 -28.7173,-28.7502 0,-15.8161 12.8927,-28.7088 28.7173,-28.7088 z" />
      <path
         style="fill:#0f47af"
         inkscape:connector-curvature="0"
         id="path4379"
         d="m 1097.31,2184.61 c 7.8063,0 14.1552,6.3818 14.1552,14.1625 0,7.7819 -6.3489,14.1235 -14.1552,14.1235 -7.7819,0 -14.1308,-6.3415 -14.1308,-14.1235 0,-7.7807 6.3489,-14.1625 14.1308,-14.1625 z" />
      <path
         inkscape:connector-curvature="0"
         id="path4381"
         d="m 1163.72,2170.21 c 15.8246,0 28.7173,12.8927 28.7173,28.7088 0,15.8234 -12.8927,28.7502 -28.7173,28.7502 -15.8149,0 -28.7417,-12.9268 -28.7417,-28.7502 0,-15.8161 12.9268,-28.7088 28.7417,-28.7088 z" />
      <path
         style="fill:#0f47af"
         inkscape:connector-curvature="0"
         id="path4383"
         d="m 1163.72,2184.61 c 7.7819,0 14.1308,6.3818 14.1308,14.1625 0,7.7819 -6.3489,14.1235 -14.1308,14.1235 -7.7807,0 -14.1552,-6.3415 -14.1552,-14.1235 0,-7.7807 6.3745,-14.1625 14.1552,-14.1625 z" />
      <path
         inkscape:connector-curvature="0"
         id="path4385"
         d="m 996.511,2115.64 c 15.8234,0 28.7173,12.8927 28.7173,28.7173 0,15.8149 -12.8939,28.7417 -28.7173,28.7417 -15.8234,0 -28.7173,-12.9268 -28.7173,-28.7417 0,-15.8246 12.8939,-28.7173 28.7173,-28.7173 z" />
      <path
         style="fill:#0f47af"
         inkscape:connector-curvature="0"
         id="path4387"
         d="m 996.511,2130.08 c 7.7819,0 14.1308,6.3489 14.1308,14.1296 0,7.7819 -6.3489,14.1552 -14.1308,14.1552 -7.78193,0 -14.1552,-6.3732 -14.1552,-14.1552 0,-7.7807 6.37324,-14.1296 14.1552,-14.1296 z" />
      <path
         inkscape:connector-curvature="0"
         id="path4389"
         d="m 1133.49,2114.46 c 15.8161,0 28.7088,12.8939 28.7088,28.7173 0,15.8234 -12.8927,28.7173 -28.7088,28.7173 -15.8234,0 -28.7502,-12.8939 -28.7502,-28.7173 0,-15.8234 12.9268,-28.7173 28.7502,-28.7173 z" />
      <path
         style="fill:#0f47af"
         inkscape:connector-curvature="0"
         id="path4391"
         d="m 1133.49,2128.91 c 7.7819,0 14.1223,6.3403 14.1223,14.1223 0,7.7819 -6.3403,14.1308 -14.1223,14.1308 -7.7819,0 -14.1637,-6.3489 -14.1637,-14.1308 0,-7.7819 6.3818,-14.1223 14.1637,-14.1223 z" />
      <path
         style="fill:#0f47af"
         inkscape:connector-curvature="0"
         id="path4393"
         d="m 1067.67,2129.48 c 7.7819,0 14.1308,6.3489 14.1308,14.1552 0,7.7819 -6.3489,14.1308 -14.1308,14.1308 -7.7819,0 -14.1308,-6.3489 -14.1308,-14.1308 0,-7.8063 6.3489,-14.1552 14.1308,-14.1552 z" />
    </g>
  </g>
</svg>
