<?xml version="1.0" encoding="utf-8"?>
<!-- generated at drububu.com  -->
<!DOCTYPE svg PUBLIC "-//W3C//DTD SVG 1.1//EN" "http://www.w3.org/Graphics/SVG/1.1/DTD/svg11.dtd">
<svg version="1.1" preserveAspectRatio="xMinYMin meet" xmlns="http://www.w3.org/2000/svg" xmlns:xlink="http://www.w3.org/1999/xlink" x="0px" y="0px" width="640px" height="640px" viewBox="0 0 640 640">
<path d="M0 0h640v640h-640v-640z" fill="rgb(251,251,250)"/>
<path d="M288 24h24v24h-24v-24z" fill="rgb(216,207,161)"/>
<path d="M312 24h24v24h-24v-24z" fill="rgb(219,199,90)"/>
<path d="M336 24h24v24h-24v-24z" fill="rgb(216,207,161)"/>
<path d="M192 48h24v24h-24v-24z" fill="rgb(216,207,161)"/>
<path d="M264 48h24v24h-24v-24z" fill="rgb(216,207,161)"/>
<path d="M288 48h72v24h-72v-24z" fill="rgb(237,209,16)"/>
<path d="M360 48h24v48h-24v-48z" fill="rgb(216,207,161)"/>
<path d="M192 72h24v24h-24v-24z" fill="rgb(191,190,161)"/>
<path d="M216 72h24v24h-24v-24z" fill="rgb(203,175,37)"/>
<path d="M264 72h24v24h-24v-24z" fill="rgb(219,199,90)"/>
<path d="M288 72h72v24h-72v-24z" fill="rgb(203,175,37)"/>
<path d="M408 72h24v24h-24v-24z" fill="rgb(203,175,37)"/>
<path d="M432 72h24v24h-24v-24z" fill="rgb(216,207,161)"/>
<path d="M168 96h24v24h-24v-24z" fill="rgb(216,207,161)"/>
<path d="M192 96h24v24h-24v-24z" fill="rgb(177,152,28)"/>
<path d="M216 96h24v72h-24v-72z" fill="rgb(237,209,16)"/>
<path d="M240 96h48v24h-48v-24z" fill="rgb(216,207,161)"/>
<path d="M288 96h24v48h-24v-48z" fill="rgb(177,152,28)"/>
<path d="M312 96h24v72h-24v-72z" fill="rgb(207,158,83)"/>
<path d="M336 96h24v48h-24v-48z" fill="rgb(177,152,28)"/>
<path d="M360 96h24v48h-24v-48z" fill="rgb(251,251,250)"/>
<path d="M384 96h24v24h-24v-24z" fill="rgb(216,207,161)"/>
<path d="M408 96h24v24h24v168h-24v-48h-24v-72h-24v-24h24v-48z" fill="rgb(237,209,16)"/>
<path d="M432 96h24v24h-24v-24z" fill="rgb(219,199,90)"/>
<path d="M168 120h24v24h-24v-24z" fill="rgb(219,199,90)"/>
<path d="M192 120h24v24h-24v-24z" fill="rgb(207,158,83)"/>
<path d="M240 120h24v24h-24v-24z" fill="rgb(219,199,90)"/>
<path d="M264 120h24v24h-24v-24z" fill="rgb(251,251,250)"/>
<path d="M384 120h24v24h-24v-24z" fill="rgb(219,199,90)"/>
<path d="M456 120h24v168h-24v-168z" fill="rgb(216,207,161)"/>
<path d="M168 144h24v24h-24v-24z" fill="rgb(203,175,37)"/>
<path d="M192 144h24v24h-24v-24z" fill="rgb(177,152,28)"/>
<path d="M240 144h24v24h-24v-24z" fill="rgb(203,175,37)"/>
<path d="M264 144h24v24h-24v-24z" fill="rgb(177,152,28)"/>
<path d="M288 144h24v24h-24v-24z" fill="rgb(203,175,37)"/>
<path d="M336 144h24v24h-24v-24z" fill="rgb(203,175,37)"/>
<path d="M360 144h24v24h-24v-24z" fill="rgb(177,152,28)"/>
<path d="M168 168h24v24h24v24h24v-24h24v120h-48v-24h-24v-72h-24v-48z" fill="rgb(237,209,16)"/>
<path d="M192 168h24v24h-24v-24z" fill="rgb(203,175,37)"/>
<path d="M216 168h48v24h-48v-24z" fill="rgb(207,158,83)"/>
<path d="M264 168h24v24h24v24h-48v-48z" fill="rgb(203,175,37)"/>
<path d="M288 168h24v24h-24v-24z" fill="rgb(237,209,16)"/>
<path d="M312 168h24v24h-24v-24z" fill="rgb(177,152,28)"/>
<path d="M336 168h24v72h-72v-24h24v-24h24v-24z" fill="rgb(237,209,16)"/>
<path d="M360 168h48v96h-24v-72h-24v-24z" fill="rgb(207,158,83)"/>
<path d="M216 192h24v24h-24v-24z" fill="rgb(203,175,37)"/>
<path d="M360 192h24v48h-24v-48z" fill="rgb(177,152,28)"/>
<path d="M168 216h24v120h-24v-120z" fill="rgb(219,199,90)"/>
<path d="M264 216h24v24h-24v-24z" fill="rgb(177,152,28)"/>
<path d="M264 240h24v24h-24v-24z" fill="rgb(191,190,161)"/>
<path d="M288 240h72v24h-72v-24z" fill="rgb(216,207,161)"/>
<path d="M360 240h24v24h-24v-24z" fill="rgb(219,199,90)"/>
<path d="M408 240h24v24h-24v-24z" fill="rgb(203,175,37)"/>
<path d="M264 264h24v24h-24v-24z" fill="rgb(216,207,161)"/>
<path d="M288 264h72v24h-48v24h-24v-48z" fill="rgb(251,251,250)"/>
<path d="M360 264h24v24h-24v-24z" fill="rgb(216,207,161)"/>
<path d="M384 264h24v48h-24v-48z" fill="rgb(203,175,37)"/>
<path d="M408 264h24v24h-24v-24z" fill="rgb(207,158,83)"/>
<path d="M480 264h24v24h-24v-24z" fill="rgb(152,159,160)"/>
<path d="M192 288h24v24h-24v-24z" fill="rgb(203,175,37)"/>
<path d="M264 288h24v144h-24v-144z" fill="rgb(152,159,160)"/>
<path d="M312 288h24v24h-24v-24z" fill="rgb(191,190,161)"/>
<path d="M336 288h24v24h-24v-24z" fill="rgb(216,207,161)"/>
<path d="M360 288h24v24h-24v-24z" fill="rgb(219,199,90)"/>
<path d="M408 288h24v24h-24v-24z" fill="rgb(130,115,73)"/>
<path d="M432 288h24v120h-48v-24h24v-96z" fill="rgb(177,152,28)"/>
<path d="M456 288h24v72h-24v-72z" fill="rgb(191,190,161)"/>
<path d="M480 288h24v24h-24v-24z" fill="rgb(90,141,101)"/>
<path d="M192 312h48v24h-48v-24z" fill="rgb(177,152,28)"/>
<path d="M240 312h24v24h-24v-24z" fill="rgb(219,199,90)"/>
<path d="M288 312h72v120h-24v-96h-24v96h-24v-120z" fill="rgb(19,69,167)"/>
<path d="M360 312h48v24h-48v-24z" fill="rgb(177,152,28)"/>
<path d="M408 312h24v72h-24v-24h-24v-24h24v-24z" fill="rgb(69,99,40)"/>
<path d="M480 312h24v24h-24v-24z" fill="rgb(15,116,45)"/>
<path d="M168 336h24v24h-24v-24z" fill="rgb(177,152,28)"/>
<path d="M192 336h24v72h-24v-72z" fill="rgb(152,159,160)"/>
<path d="M216 336h24v24h-24v-24z" fill="rgb(90,141,101)"/>
<path d="M240 336h24v48h-24v-48z" fill="rgb(251,251,250)"/>
<path d="M312 336h24v96h-24v-96z" fill="rgb(12,60,151)"/>
<path d="M360 336h24v24h-24v-24z" fill="rgb(203,175,37)"/>
<path d="M480 336h24v72h-24v-72z" fill="rgb(7,133,46)"/>
<path d="M504 336h24v48h-24v-48z" fill="rgb(216,207,161)"/>
<path d="M168 360h24v24h-24v-24z" fill="rgb(130,115,73)"/>
<path d="M216 360h24v24h-24v-24z" fill="rgb(69,99,40)"/>
<path d="M360 360h24v24h-24v-24z" fill="rgb(237,209,16)"/>
<path d="M384 360h24v24h-24v-24z" fill="rgb(177,152,28)"/>
<path d="M456 360h24v24h-24v-24z" fill="rgb(152,159,160)"/>
<path d="M168 384h24v24h-24v-24z" fill="rgb(7,133,46)"/>
<path d="M216 384h24v24h-24v-24z" fill="rgb(7,133,46)"/>
<path d="M240 384h24v48h-24v-48z" fill="rgb(191,190,161)"/>
<path d="M360 384h24v24h-24v-24z" fill="rgb(130,115,73)"/>
<path d="M384 384h24v24h-24v-24z" fill="rgb(203,175,37)"/>
<path d="M456 384h24v24h-24v-24z" fill="rgb(90,141,101)"/>
<path d="M168 408h24v24h-24v-24z" fill="rgb(90,141,101)"/>
<path d="M192 408h24v24h24v24h72v24h-72v24h24v24h-96v-24h48v-24h-24v-72z" fill="rgb(7,133,46)"/>
<path d="M216 408h24v24h-24v-24z" fill="rgb(90,141,101)"/>
<path d="M360 408h24v24h-24v-24z" fill="rgb(152,159,160)"/>
<path d="M384 408h24v24h-24v-24z" fill="rgb(216,207,161)"/>
<path d="M408 408h24v24h-24v-24z" fill="rgb(191,190,161)"/>
<path d="M432 408h24v24h-24v-24z" fill="rgb(90,141,101)"/>
<path d="M456 408h24v72h-24v24h-48v-48h24v-24h24v-24z" fill="rgb(7,133,46)"/>
<path d="M480 408h24v24h-24v-24z" fill="rgb(15,116,45)"/>
<path d="M168 432h24v72h-24v-72z" fill="rgb(152,159,160)"/>
<path d="M240 432h24v24h-24v-24z" fill="rgb(90,141,101)"/>
<path d="M264 432h72v24h24v24h-48v-24h-48v-24z" fill="rgb(15,116,45)"/>
<path d="M336 432h24v24h-24v-24z" fill="rgb(207,158,83)"/>
<path d="M360 432h24v24h-24v-24z" fill="rgb(130,115,73)"/>
<path d="M384 432h48v24h-24v48h48v24h-96v-48h24v-48z" fill="rgb(15,116,45)"/>
<path d="M480 432h24v24h-24v-24z" fill="rgb(90,141,101)"/>
<path d="M360 456h24v24h-24v-24z" fill="rgb(7,133,46)"/>
<path d="M480 456h24v24h-24v-24z" fill="rgb(191,190,161)"/>
<path d="M144 480h24v24h-24v-24z" fill="rgb(191,190,161)"/>
<path d="M192 480h24v24h-24v-24z" fill="rgb(15,116,45)"/>
<path d="M240 480h48v24h-48v-24z" fill="rgb(15,116,45)"/>
<path d="M288 480h72v24h-72v-24z" fill="rgb(69,99,40)"/>
<path d="M456 480h24v24h-24v-24z" fill="rgb(15,116,45)"/>
<path d="M144 504h24v24h-24v-24z" fill="rgb(69,99,40)"/>
<path d="M264 504h24v24h-24v-24z" fill="rgb(152,159,160)"/>
<path d="M288 504h24v24h-24v-24z" fill="rgb(251,251,250)"/>
<path d="M312 504h24v24h-24v-24z" fill="rgb(191,190,161)"/>
<path d="M336 504h24v24h-24v-24z" fill="rgb(251,251,250)"/>
<path d="M456 504h24v24h-24v-24z" fill="rgb(7,133,46)"/>
<path d="M480 504h24v24h-24v-24z" fill="rgb(216,207,161)"/>
<path d="M144 528h24v24h-24v-24z" fill="rgb(191,190,161)"/>
<path d="M168 528h24v24h-24v-24z" fill="rgb(152,159,160)"/>
<path d="M192 528h96v24h24v48h-24v-24h-24v-24h-72v-24z" fill="rgb(216,207,161)"/>
<path d="M288 528h48v72h-24v-48h-24v-24z" fill="rgb(152,159,160)"/>
<path d="M336 528h24v24h-24v-24z" fill="rgb(191,190,161)"/>
<path d="M360 528h24v24h-24v-24z" fill="rgb(152,159,160)"/>
<path d="M384 528h24v24h-24v-24z" fill="rgb(191,190,161)"/>
<path d="M408 528h24v24h-24v-24z" fill="rgb(216,207,161)"/>
<path d="M336 552h24v24h-24v-24z" fill="rgb(251,251,250)"/>
<path d="M360 552h24v24h-24v-24z" fill="rgb(216,207,161)"/>
<path d="M336 576h24v24h-24v-24z" fill="rgb(216,207,161)"/>
</svg>