<?xml version="1.0" encoding="utf-8"?>
<!-- generated at drububu.com  -->
<!DOCTYPE svg PUBLIC "-//W3C//DTD SVG 1.1//EN" "http://www.w3.org/Graphics/SVG/1.1/DTD/svg11.dtd">
<svg version="1.1" preserveAspectRatio="xMinYMin meet" xmlns="http://www.w3.org/2000/svg" xmlns:xlink="http://www.w3.org/1999/xlink" x="0px" y="0px" width="640px" height="640px" viewBox="0 0 640 640">
<path d="M0 0h640v640h-640v-640z" fill="rgb(255,255,255)"/>
<path d="M192 24h24v24h-24v-24z" fill="rgb(240,240,240)"/>
<path d="M264 24h24v24h-24v-24z" fill="rgb(251,251,251)"/>
<path d="M288 24h24v24h-24v-24z" fill="rgb(217,206,148)"/>
<path d="M312 24h24v24h-24v-24z" fill="rgb(223,205,99)"/>
<path d="M336 24h24v24h-24v-24z" fill="rgb(217,209,170)"/>
<path d="M192 48h24v24h-24v-24z" fill="rgb(214,214,214)"/>
<path d="M264 48h24v24h-24v-24z" fill="rgb(217,207,150)"/>
<path d="M288 48h24v24h-24v-24z" fill="rgb(246,216,9)"/>
<path d="M312 48h24v24h-24v-24z" fill="rgb(225,197,7)"/>
<path d="M336 48h24v24h-24v-24z" fill="rgb(244,214,8)"/>
<path d="M360 48h24v24h-24v-24z" fill="rgb(218,213,188)"/>
<path d="M408 48h24v24h-24v-24z" fill="rgb(254,254,254)"/>
<path d="M192 72h24v24h-24v-24z" fill="rgb(190,180,133)"/>
<path d="M216 72h24v24h-24v-24z" fill="rgb(206,185,66)"/>
<path d="M240 72h24v24h-24v-24z" fill="rgb(254,254,254)"/>
<path d="M264 72h24v24h-24v-24z" fill="rgb(223,206,104)"/>
<path d="M288 72h24v24h-24v-24z" fill="rgb(197,172,10)"/>
<path d="M312 72h24v24h-24v-24z" fill="rgb(191,166,19)"/>
<path d="M336 72h24v24h-24v-24z" fill="rgb(204,178,8)"/>
<path d="M360 72h24v24h-24v-24z" fill="rgb(220,209,151)"/>
<path d="M384 72h24v24h-24v-24z" fill="rgb(230,230,229)"/>
<path d="M408 72h24v24h-24v-24z" fill="rgb(213,190,42)"/>
<path d="M432 72h24v24h-24v-24z" fill="rgb(229,225,209)"/>
<path d="M168 96h24v24h-24v-24z" fill="rgb(224,220,202)"/>
<path d="M192 96h24v24h-24v-24z" fill="rgb(177,137,63)"/>
<path d="M216 96h24v24h-24v-24z" fill="rgb(233,204,8)"/>
<path d="M240 96h24v24h-24v-24z" fill="rgb(220,219,213)"/>
<path d="M264 96h24v24h-24v-24z" fill="rgb(220,213,178)"/>
<path d="M288 96h24v24h-24v-24z" fill="rgb(179,146,50)"/>
<path d="M312 96h24v24h-24v-24z" fill="rgb(205,141,96)"/>
<path d="M336 96h24v24h-24v-24z" fill="rgb(175,150,38)"/>
<path d="M360 96h24v24h-24v-24z" fill="rgb(231,229,218)"/>
<path d="M384 96h24v24h-24v-24z" fill="rgb(218,210,168)"/>
<path d="M408 96h24v48h-24v-48z" fill="rgb(252,221,9)"/>
<path d="M432 96h24v24h-24v-24z" fill="rgb(220,197,66)"/>
<path d="M456 96h24v24h-24v-24z" fill="rgb(252,252,252)"/>
<path d="M168 120h24v24h-24v-24z" fill="rgb(211,193,91)"/>
<path d="M192 120h24v24h-24v-24z" fill="rgb(196,141,84)"/>
<path d="M216 120h24v24h-24v-24z" fill="rgb(245,215,9)"/>
<path d="M240 120h24v24h-24v-24z" fill="rgb(215,197,90)"/>
<path d="M264 120h24v24h-24v-24z" fill="rgb(237,237,237)"/>
<path d="M288 120h24v24h-24v-24z" fill="rgb(172,147,39)"/>
<path d="M312 120h24v24h-24v-24z" fill="rgb(192,132,89)"/>
<path d="M336 120h24v24h-24v-24z" fill="rgb(183,161,60)"/>
<path d="M360 120h24v24h-24v-24z" fill="rgb(238,238,237)"/>
<path d="M384 120h24v24h-24v-24z" fill="rgb(226,202,56)"/>
<path d="M432 120h24v24h-24v-24z" fill="rgb(238,209,8)"/>
<path d="M456 120h24v24h-24v-24z" fill="rgb(221,216,191)"/>
<path d="M168 144h24v24h-24v-24z" fill="rgb(199,179,66)"/>
<path d="M192 144h24v24h-24v-24z" fill="rgb(170,132,58)"/>
<path d="M216 144h24v24h-24v-24z" fill="rgb(235,205,19)"/>
<path d="M240 144h24v24h-24v-24z" fill="rgb(218,183,49)"/>
<path d="M264 144h24v24h-24v-24z" fill="rgb(164,135,48)"/>
<path d="M288 144h24v24h-24v-24z" fill="rgb(222,186,53)"/>
<path d="M312 144h24v24h-24v-24z" fill="rgb(206,153,83)"/>
<path d="M336 144h24v24h-24v-24z" fill="rgb(212,180,41)"/>
<path d="M360 144h24v24h-24v-24z" fill="rgb(174,135,62)"/>
<path d="M384 144h24v24h-24v-24z" fill="rgb(233,202,28)"/>
<path d="M408 144h24v24h-24v-24z" fill="rgb(224,196,7)"/>
<path d="M432 144h24v24h-24v-24z" fill="rgb(232,203,8)"/>
<path d="M456 144h24v24h-24v-24z" fill="rgb(208,200,158)"/>
<path d="M168 168h24v24h-24v-24z" fill="rgb(226,202,49)"/>
<path d="M192 168h24v24h-24v-24z" fill="rgb(204,173,39)"/>
<path d="M216 168h24v24h-24v-24z" fill="rgb(216,151,99)"/>
<path d="M240 168h24v24h-24v-24z" fill="rgb(217,150,101)"/>
<path d="M264 168h24v24h-24v-24z" fill="rgb(203,173,39)"/>
<path d="M288 168h24v24h-24v-24z" fill="rgb(246,216,9)"/>
<path d="M312 168h24v24h-24v-24z" fill="rgb(188,165,5)"/>
<path d="M336 168h24v24h-24v-24z" fill="rgb(252,221,9)"/>
<path d="M360 168h24v24h-24v-24z" fill="rgb(210,163,75)"/>
<path d="M384 168h24v24h-24v-24z" fill="rgb(205,162,69)"/>
<path d="M408 168h24v24h-24v-24z" fill="rgb(234,205,8)"/>
<path d="M432 168h24v120h-24v-72h-24v-24h24v-24z" fill="rgb(252,221,9)"/>
<path d="M456 168h24v24h-24v-24z" fill="rgb(223,214,154)"/>
<path d="M168 192h24v24h-24v-24z" fill="rgb(226,202,51)"/>
<path d="M192 192h24v24h-24v-24z" fill="rgb(223,195,7)"/>
<path d="M216 192h24v24h-24v-24z" fill="rgb(215,178,53)"/>
<path d="M240 192h24v24h-24v-24z" fill="rgb(229,200,16)"/>
<path d="M264 192h24v24h-24v-24z" fill="rgb(211,185,6)"/>
<path d="M288 192h24v24h-24v-24z" fill="rgb(214,187,6)"/>
<path d="M312 192h24v24h-24v-24z" fill="rgb(245,215,8)"/>
<path d="M336 192h24v24h-24v-24z" fill="rgb(220,193,7)"/>
<path d="M360 192h24v24h-24v-24z" fill="rgb(189,156,49)"/>
<path d="M384 192h24v24h-24v-24z" fill="rgb(216,158,91)"/>
<path d="M456 192h24v24h-24v-24z" fill="rgb(223,214,155)"/>
<path d="M168 216h24v24h-24v-24z" fill="rgb(226,203,56)"/>
<path d="M192 216h24v48h-24v-48z" fill="rgb(224,196,7)"/>
<path d="M216 216h48v96h-48v-96z" fill="rgb(252,221,9)"/>
<path d="M264 216h24v24h-24v-24z" fill="rgb(185,162,5)"/>
<path d="M288 216h24v24h-24v-24z" fill="rgb(222,194,7)"/>
<path d="M312 216h24v24h-24v-24z" fill="rgb(225,197,7)"/>
<path d="M336 216h24v24h-24v-24z" fill="rgb(216,189,6)"/>
<path d="M360 216h24v24h-24v-24z" fill="rgb(187,163,5)"/>
<path d="M384 216h24v24h-24v-24z" fill="rgb(210,145,97)"/>
<path d="M408 216h24v24h-24v-24z" fill="rgb(238,208,9)"/>
<path d="M456 216h24v24h-24v-24z" fill="rgb(223,214,157)"/>
<path d="M168 240h24v24h-24v-24z" fill="rgb(226,203,62)"/>
<path d="M264 240h24v24h-24v-24z" fill="rgb(207,194,147)"/>
<path d="M288 240h24v24h-24v-24z" fill="rgb(228,220,195)"/>
<path d="M312 240h24v24h-24v-24z" fill="rgb(228,220,196)"/>
<path d="M336 240h24v24h-24v-24z" fill="rgb(227,220,196)"/>
<path d="M360 240h24v24h-24v-24z" fill="rgb(213,194,118)"/>
<path d="M384 240h24v24h-24v-24z" fill="rgb(215,165,81)"/>
<path d="M408 240h24v24h-24v-24z" fill="rgb(222,187,46)"/>
<path d="M456 240h24v24h-24v-24z" fill="rgb(215,205,158)"/>
<path d="M480 240h24v24h-24v-24z" fill="rgb(226,226,226)"/>
<path d="M168 264h24v24h-24v-24z" fill="rgb(226,203,65)"/>
<path d="M192 264h24v24h-24v-24z" fill="rgb(223,195,7)"/>
<path d="M264 264h24v24h-24v-24z" fill="rgb(224,216,192)"/>
<path d="M288 264h24v24h-24v-24z" fill="rgb(255,255,255)"/>
<path d="M312 264h24v24h-24v-24z" fill="rgb(235,235,235)"/>
<path d="M336 264h24v24h-24v-24z" fill="rgb(255,255,255)"/>
<path d="M360 264h24v24h-24v-24z" fill="rgb(224,209,155)"/>
<path d="M384 264h24v24h-24v-24z" fill="rgb(219,183,50)"/>
<path d="M408 264h24v24h-24v-24z" fill="rgb(213,164,78)"/>
<path d="M456 264h24v24h-24v-24z" fill="rgb(207,198,154)"/>
<path d="M480 264h24v24h-24v-24z" fill="rgb(134,151,136)"/>
<path d="M168 288h24v24h-24v-24z" fill="rgb(217,194,60)"/>
<path d="M192 288h24v24h-24v-24z" fill="rgb(203,178,6)"/>
<path d="M264 288h24v24h-24v-24z" fill="rgb(176,167,147)"/>
<path d="M288 288h24v24h-24v-24z" fill="rgb(230,230,231)"/>
<path d="M312 288h24v24h-24v-24z" fill="rgb(176,178,188)"/>
<path d="M336 288h24v24h-24v-24z" fill="rgb(209,209,212)"/>
<path d="M360 288h24v24h-24v-24z" fill="rgb(210,187,73)"/>
<path d="M384 288h24v24h-24v-24z" fill="rgb(202,175,24)"/>
<path d="M408 288h24v24h-24v-24z" fill="rgb(144,108,53)"/>
<path d="M432 288h24v24h-24v-24z" fill="rgb(186,162,11)"/>
<path d="M456 288h24v24h-24v-24z" fill="rgb(198,190,154)"/>
<path d="M480 288h24v24h-24v-24z" fill="rgb(66,123,77)"/>
<path d="M168 312h24v24h-24v-24z" fill="rgb(220,197,55)"/>
<path d="M192 312h24v24h-24v-24z" fill="rgb(164,145,38)"/>
<path d="M216 312h24v24h-24v-24z" fill="rgb(152,149,23)"/>
<path d="M240 312h24v24h-24v-24z" fill="rgb(225,201,92)"/>
<path d="M264 312h24v24h-24v-24z" fill="rgb(107,116,161)"/>
<path d="M288 312h24v24h-24v-24z" fill="rgb(19,69,167)"/>
<path d="M312 312h24v24h-24v-24z" fill="rgb(49,74,148)"/>
<path d="M336 312h24v24h-24v-24z" fill="rgb(13,65,160)"/>
<path d="M360 312h24v24h-24v-24z" fill="rgb(185,162,5)"/>
<path d="M384 312h24v24h-24v-24z" fill="rgb(150,131,3)"/>
<path d="M408 312h24v24h-24v-24z" fill="rgb(78,67,1)"/>
<path d="M432 312h24v48h-24v-48z" fill="rgb(182,159,5)"/>
<path d="M456 312h24v24h-24v-24z" fill="rgb(204,195,152)"/>
<path d="M480 312h24v24h-24v-24z" fill="rgb(11,110,39)"/>
<path d="M504 312h24v24h-24v-24z" fill="rgb(245,245,245)"/>
<path d="M168 336h24v24h-24v-24z" fill="rgb(180,164,52)"/>
<path d="M192 336h24v24h-24v-24z" fill="rgb(156,161,157)"/>
<path d="M216 336h24v24h-24v-24z" fill="rgb(80,123,76)"/>
<path d="M240 336h24v24h-24v-24z" fill="rgb(241,240,239)"/>
<path d="M264 336h24v48h-24v-48z" fill="rgb(130,138,180)"/>
<path d="M288 336h24v72h-24v-72z" fill="rgb(15,71,175)"/>
<path d="M312 336h24v96h-24v-96z" fill="rgb(12,60,151)"/>
<path d="M336 336h24v24h-24v-24z" fill="rgb(13,66,164)"/>
<path d="M360 336h24v24h-24v-24z" fill="rgb(194,170,5)"/>
<path d="M384 336h24v24h-24v-24z" fill="rgb(99,86,1)"/>
<path d="M408 336h24v24h-24v-24z" fill="rgb(95,82,1)"/>
<path d="M456 336h24v24h-24v-24z" fill="rgb(194,184,137)"/>
<path d="M480 336h24v24h-24v-24z" fill="rgb(6,126,43)"/>
<path d="M504 336h24v24h-24v-24z" fill="rgb(219,219,219)"/>
<path d="M168 360h24v24h-24v-24z" fill="rgb(99,132,63)"/>
<path d="M192 360h24v24h-24v-24z" fill="rgb(145,150,146)"/>
<path d="M216 360h24v24h-24v-24z" fill="rgb(60,122,70)"/>
<path d="M240 360h24v24h-24v-24z" fill="rgb(236,237,237)"/>
<path d="M336 360h24v24h-24v-24z" fill="rgb(14,67,166)"/>
<path d="M360 360h24v24h-24v-24z" fill="rgb(219,192,7)"/>
<path d="M384 360h24v24h-24v-24z" fill="rgb(189,166,5)"/>
<path d="M408 360h24v24h-24v-24z" fill="rgb(85,73,1)"/>
<path d="M432 360h24v24h-24v-24z" fill="rgb(133,116,2)"/>
<path d="M456 360h24v24h-24v-24z" fill="rgb(171,164,122)"/>
<path d="M480 360h24v24h-24v-24z" fill="rgb(7,134,47)"/>
<path d="M504 360h24v24h-24v-24z" fill="rgb(209,209,209)"/>
<path d="M168 384h24v24h-24v-24z" fill="rgb(42,136,68)"/>
<path d="M192 384h24v24h-24v-24z" fill="rgb(148,153,149)"/>
<path d="M216 384h24v24h-24v-24z" fill="rgb(6,127,44)"/>
<path d="M240 384h24v24h-24v-24z" fill="rgb(196,202,196)"/>
<path d="M264 384h24v24h-24v-24z" fill="rgb(128,137,180)"/>
<path d="M336 384h24v24h-24v-24z" fill="rgb(15,71,175)"/>
<path d="M360 384h24v24h-24v-24z" fill="rgb(137,123,79)"/>
<path d="M384 384h24v24h-24v-24z" fill="rgb(209,183,6)"/>
<path d="M408 384h24v24h-24v-24z" fill="rgb(168,147,4)"/>
<path d="M432 384h24v24h-24v-24z" fill="rgb(178,158,33)"/>
<path d="M456 384h24v24h-24v-24z" fill="rgb(107,146,113)"/>
<path d="M480 384h24v24h-24v-24z" fill="rgb(6,131,45)"/>
<path d="M504 384h24v24h-24v-24z" fill="rgb(222,222,222)"/>
<path d="M168 408h24v24h-24v-24z" fill="rgb(80,145,94)"/>
<path d="M192 408h24v24h-24v-24z" fill="rgb(21,128,49)"/>
<path d="M216 408h24v24h-24v-24z" fill="rgb(85,137,93)"/>
<path d="M240 408h24v24h-24v-24z" fill="rgb(197,203,198)"/>
<path d="M264 408h24v24h-24v-24z" fill="rgb(126,135,178)"/>
<path d="M288 408h24v24h-24v-24z" fill="rgb(15,70,173)"/>
<path d="M336 408h24v24h-24v-24z" fill="rgb(31,67,162)"/>
<path d="M360 408h24v24h-24v-24z" fill="rgb(152,145,169)"/>
<path d="M384 408h24v24h-24v-24z" fill="rgb(208,202,172)"/>
<path d="M408 408h24v24h-24v-24z" fill="rgb(200,191,148)"/>
<path d="M432 408h24v24h-24v-24z" fill="rgb(116,143,118)"/>
<path d="M456 408h24v24h-24v-24z" fill="rgb(7,132,46)"/>
<path d="M480 408h24v24h-24v-24z" fill="rgb(23,123,49)"/>
<path d="M504 408h24v24h-24v-24z" fill="rgb(249,249,249)"/>
<path d="M168 432h24v24h-24v-24z" fill="rgb(142,178,149)"/>
<path d="M192 432h24v48h-24v-48z" fill="rgb(7,137,48)"/>
<path d="M216 432h24v24h-24v-24z" fill="rgb(46,134,64)"/>
<path d="M240 432h24v24h-24v-24z" fill="rgb(117,154,122)"/>
<path d="M264 432h24v24h-24v-24z" fill="rgb(18,98,63)"/>
<path d="M288 432h24v24h-24v-24z" fill="rgb(5,99,65)"/>
<path d="M312 432h24v24h-24v-24z" fill="rgb(5,109,61)"/>
<path d="M336 432h24v24h-24v-24z" fill="rgb(184,136,88)"/>
<path d="M360 432h24v24h-24v-24z" fill="rgb(141,128,79)"/>
<path d="M384 432h24v24h-24v-24z" fill="rgb(33,120,54)"/>
<path d="M408 432h24v24h-24v-24z" fill="rgb(10,122,43)"/>
<path d="M432 432h24v24h-24v-24z" fill="rgb(6,126,44)"/>
<path d="M456 432h24v24h-24v-24z" fill="rgb(6,131,46)"/>
<path d="M480 432h24v24h-24v-24z" fill="rgb(90,149,103)"/>
<path d="M168 456h24v24h-24v-24z" fill="rgb(147,179,152)"/>
<path d="M216 456h24v24h-24v-24z" fill="rgb(6,126,44)"/>
<path d="M240 456h24v24h-24v-24z" fill="rgb(7,136,48)"/>
<path d="M264 456h24v24h-24v-24z" fill="rgb(7,135,47)"/>
<path d="M288 456h24v24h-24v-24z" fill="rgb(6,130,45)"/>
<path d="M312 456h24v24h-24v-24z" fill="rgb(5,119,41)"/>
<path d="M336 456h24v24h-24v-24z" fill="rgb(32,100,35)"/>
<path d="M360 456h24v24h-24v-24z" fill="rgb(6,131,45)"/>
<path d="M384 456h24v24h-24v-24z" fill="rgb(5,114,39)"/>
<path d="M408 456h24v48h-24v-48z" fill="rgb(6,125,43)"/>
<path d="M432 456h24v24h-24v-24z" fill="rgb(6,131,46)"/>
<path d="M456 456h24v24h-24v-24z" fill="rgb(6,130,45)"/>
<path d="M480 456h24v24h-24v-24z" fill="rgb(194,202,195)"/>
<path d="M120 480h24v24h-24v-24z" fill="rgb(254,254,254)"/>
<path d="M144 480h24v24h-24v-24z" fill="rgb(183,193,184)"/>
<path d="M168 480h24v24h-24v-24z" fill="rgb(164,174,165)"/>
<path d="M192 480h24v24h-24v-24z" fill="rgb(19,111,43)"/>
<path d="M216 480h24v24h-24v-24z" fill="rgb(7,133,46)"/>
<path d="M240 480h24v24h-24v-24z" fill="rgb(5,119,41)"/>
<path d="M264 480h24v24h-24v-24z" fill="rgb(27,115,47)"/>
<path d="M288 480h24v24h-24v-24z" fill="rgb(49,109,59)"/>
<path d="M312 480h24v24h-24v-24z" fill="rgb(51,114,62)"/>
<path d="M336 480h24v24h-24v-24z" fill="rgb(50,112,61)"/>
<path d="M360 480h24v24h-24v-24z" fill="rgb(6,121,42)"/>
<path d="M384 480h24v24h-24v-24z" fill="rgb(5,110,37)"/>
<path d="M432 480h24v24h-24v-24z" fill="rgb(7,133,47)"/>
<path d="M456 480h24v24h-24v-24z" fill="rgb(11,118,42)"/>
<path d="M480 480h24v24h-24v-24z" fill="rgb(223,223,223)"/>
<path d="M120 504h24v24h-24v-24z" fill="rgb(248,248,248)"/>
<path d="M144 504h24v24h-24v-24z" fill="rgb(55,123,71)"/>
<path d="M168 504h24v24h-24v-24z" fill="rgb(6,129,45)"/>
<path d="M192 504h24v24h-24v-24z" fill="rgb(7,136,48)"/>
<path d="M216 504h48v24h-48v-24z" fill="rgb(7,137,48)"/>
<path d="M264 504h24v24h-24v-24z" fill="rgb(159,178,161)"/>
<path d="M288 504h24v24h-24v-24z" fill="rgb(229,229,229)"/>
<path d="M312 504h24v24h-24v-24z" fill="rgb(194,194,194)"/>
<path d="M336 504h24v24h-24v-24z" fill="rgb(243,243,243)"/>
<path d="M360 504h24v24h-24v-24z" fill="rgb(6,104,35)"/>
<path d="M384 504h24v24h-24v-24z" fill="rgb(11,115,41)"/>
<path d="M408 504h24v24h-24v-24z" fill="rgb(6,119,41)"/>
<path d="M432 504h24v24h-24v-24z" fill="rgb(6,123,42)"/>
<path d="M456 504h24v24h-24v-24z" fill="rgb(10,125,44)"/>
<path d="M480 504h24v24h-24v-24z" fill="rgb(220,220,220)"/>
<path d="M144 528h24v24h-24v-24z" fill="rgb(183,192,184)"/>
<path d="M168 528h24v24h-24v-24z" fill="rgb(160,171,162)"/>
<path d="M192 528h24v24h-24v-24z" fill="rgb(206,208,207)"/>
<path d="M216 528h48v24h-48v-24z" fill="rgb(204,206,204)"/>
<path d="M264 528h24v24h-24v-24z" fill="rgb(207,207,207)"/>
<path d="M288 528h24v24h-24v-24z" fill="rgb(157,159,169)"/>
<path d="M312 528h24v24h-24v-24z" fill="rgb(134,136,150)"/>
<path d="M336 528h24v24h-24v-24z" fill="rgb(196,197,202)"/>
<path d="M360 528h24v24h-24v-24z" fill="rgb(161,163,161)"/>
<path d="M384 528h24v24h-24v-24z" fill="rgb(192,195,192)"/>
<path d="M408 528h24v24h-24v-24z" fill="rgb(199,204,199)"/>
<path d="M432 528h24v24h-24v-24z" fill="rgb(225,225,225)"/>
<path d="M456 528h24v24h-24v-24z" fill="rgb(232,232,232)"/>
<path d="M264 552h24v24h-24v-24z" fill="rgb(220,220,220)"/>
<path d="M288 552h24v24h-24v-24z" fill="rgb(201,202,206)"/>
<path d="M312 552h24v24h-24v-24z" fill="rgb(148,150,161)"/>
<path d="M336 552h24v24h-24v-24z" fill="rgb(220,221,223)"/>
<path d="M360 552h24v24h-24v-24z" fill="rgb(217,217,217)"/>
<path d="M264 576h24v24h-24v-24z" fill="rgb(232,232,232)"/>
<path d="M288 576h24v24h-24v-24z" fill="rgb(216,216,216)"/>
<path d="M312 576h24v24h-24v-24z" fill="rgb(172,173,177)"/>
<path d="M336 576h24v24h-24v-24z" fill="rgb(213,213,213)"/>
<path d="M360 576h24v24h-24v-24z" fill="rgb(254,254,254)"/>
<path d="M288 600h24v24h-24v-24z" fill="rgb(252,252,252)"/>
<path d="M312 600h24v24h-24v-24z" fill="rgb(242,242,242)"/>
</svg>